# xmcd
#
# Track frame offsets:
#	150
#	2306
#	19093
#	36519
#	53490
#	73336
#	90282
#	105390
#	123355
#	142958
#	163462
#	180120
#
# Disc length: 2634 seconds
#
# Revision: 0
# Processed by: cddbd v1.4PL0 Copyright (c) Steve Scherf et al.
# Submitted via: dBpowerAMP V4.0
#
DISCID=8d0a480c
DTITLE=TG4 - Time for the New
DYEAR=2002
DGENRE=R&B
TTITLE0=Intro
TTITLE1=Can't Trust a Friend
TTITLE2=Zip It Up
TTITLE3=Virginity
TTITLE4=Pop the Question
TTITLE5=Busted
TTITLE6=Sweat
TTITLE7=Way Gone
TTITLE8=Two Minutes
TTITLE9=My Pillow
TTITLE10=Best Friend
TTITLE11=Secretly
EXTD=
EXTT0=
EXTT1=
EXTT2=
EXTT3=
EXTT4=
EXTT5=
EXTT6=
EXTT7=
EXTT8=
EXTT9=
EXTT10=
EXTT11=
PLAYORDER=
